Coordinates
nRows=10
nColumns=38

# SIMM Motion File Header:
name Coordinates
datacolumns 38
datarows 10
otherdata 1
range 0.99149999999999994000 1.00049999999999990000

Units are S.I. units (second, meters, Newtons, ...)
Angles are in degrees.

endheader
time	pelvis_tilt	pelvis_list	pelvis_rotation	pelvis_tx	pelvis_ty	pelvis_tz	hip_flexion_r	hip_adduction_r	hip_rotation_r	knee_angle_r	ankle_angle_r	subtalar_angle_r	mtp_angle_r	hip_flexion_l	hip_adduction_l	hip_rotation_l	knee_angle_l	ankle_angle_l	subtalar_angle_l	mtp_angle_l	lumbar_extension	lumbar_bending	lumbar_rotation	arm_flex_r	arm_add_r	arm_rot_r	elbow_flex_r	pro_sup_r	wrist_flex_r	wrist_dev_r	arm_flex_l	arm_add_l	arm_rot_l	elbow_flex_l	pro_sup_l	wrist_flex_l	wrist_dev_l
      0.99149999999999994000	     -5.09117921652591400000	     -1.01638668059840230000	     -1.84114880850514620000	      1.17835120364605660000	      1.01260349806400060000	     -0.32701923965228014000	    -21.96440568832673900000	      7.52128014060745190000	     12.08991973730471200000	    -46.23762011155335500000	    -20.84590171220276400000	      0.00000000000003052618	     -0.00000000000002325058	     23.47423233568219200000	      1.62049478768397440000	      5.65573429607878890000	      4.70327873028991040000	     -6.11130974248606500000	     -0.00000000000001016613	     -0.00000000000002579633	    -11.59117158767350700000	     -0.29178765653796390000	     16.24853141774976000000	    -19.58258734295884600000	    -26.56802794520894300000	      6.20278216297845390000	    142.27625218179256000000	     94.96264408855670100000	      0.00000000000000156965	     -0.00000000000000337301	    -51.38228115923654800000	    -18.59759388953754200000	    -15.86977810254793500000	    136.14527057292835000000	     91.25946924144932400000	     -0.00000000000000250511	      0.00000000000002365222
      0.99249999999999994000	     -5.05122101374430340000	     -1.03830798553686240000	     -1.81350682503781720000	      1.17847489701670140000	      1.01233532781471420000	     -0.32694933057789349000	    -21.82356046589200500000	      7.57257901226882790000	     11.90307831400511400000	    -46.91432986853144600000	    -20.76339768400631800000	      0.00000000000003069793	     -0.00000000000002331435	     23.36605521941915200000	      1.61062925162010240000	      5.63839498998256960000	      4.79089482437562000000	     -6.10685219912029180000	     -0.00000000000001020135	     -0.00000000000002594568	    -11.64203562745578500000	     -0.27879052389903353000	     16.14827889224615400000	    -19.70563632359852200000	    -26.52300799532986300000	      6.16409351344071240000	    142.04909642089171000000	     95.02114586577614800000	      0.00000000000000159132	     -0.00000000000000334916	    -51.13047835373809800000	    -18.66449179007849300000	    -15.82735016479452600000	    136.09095991988977000000	     91.29164211181407000000	     -0.00000000000000251235	      0.00000000000002376239
      0.99349999999999994000	     -5.01144580779804730000	     -1.05757321455484180000	     -1.78642884668279760000	      1.17859461205373290000	      1.01205906828563670000	     -0.32688171307098446000	    -21.67829494171357400000	      7.61850499908325140000	     11.71116491012198000000	    -47.59578241850700000000	    -20.67838104721460400000	      0.00000000000003086675	     -0.00000000000002337731	     23.26096321192024200000	      1.60403497339682530000	      5.62353694914513640000	      4.86331923744303830000	     -6.09797060022556450000	     -0.00000000000001023379	     -0.00000000000002609712	    -11.69276491232564300000	     -0.26834786569099761000	     16.04692671940300400000	    -19.82693896731300500000	    -26.47624262004808700000	      6.12614008394053760000	    141.81829418618514000000	     95.07613541485210400000	      0.00000000000000161283	     -0.00000000000000332726	    -50.87683688412034400000	    -18.73175415061951200000	    -15.78412849415026500000	    136.03403550722035000000	     91.32411174682930300000	     -0.00000000000000251955	      0.00000000000002387286
      0.99449999999999994000	     -4.97183253113913710000	     -1.07422828583169980000	     -1.76001263125218070000	      1.17871049770225510000	      1.01177474140656250000	     -0.32681621738475980000	    -21.52876487478537000000	      7.65907507494251230000	     11.51467444601267200000	    -48.28175250398118800000	    -20.59065791438896700000	      0.00000000000003103692	     -0.00000000000002344091	     23.15879090615019800000	      1.60059771895973450000	      5.61127183795065940000	      4.92090359948176650000	     -6.08498427338140860000	     -0.00000000000001026439	     -0.00000000000002625115	    -11.74336483840049400000	     -0.26042549253265213000	     15.94460987688620300000	    -19.94652134044159600000	    -26.42777423793323900000	      6.08891457254629560000	    141.58390570172702000000	     95.12760191732263600000	      0.00000000000000163434	     -0.00000000000000330606	    -50.62139490946512400000	    -18.79941331941814300000	    -15.74009003724080500000	    135.97452403234271000000	     91.35680280866655800000	     -0.00000000000000252700	      0.00000000000002398352
      0.99549999999999994000	     -4.93235086269326660000	     -1.08831787500469710000	     -1.73435700667819590000	      1.17882271431576480000	      1.01148238299936580000	     -0.32675267346634523000	    -21.37513957880945600000	      7.69430708365144510000	     11.31409779373867200000	    -48.97200831100767700000	    -20.50004916990305400000	      0.00000000000003120808	     -0.00000000000002350492	     23.05935430897190100000	      1.60020541245637470000	      5.60169224357798080000	      4.96402261606568370000	     -6.06824200516301550000	     -0.00000000000001029678	     -0.00000000000002640428	    -11.79385080258907900000	     -0.25499113654834821000	     15.84146534863480900000	    -20.06441452342705000000	    -26.37764291752321100000	      6.05240213022965090000	    141.34599272929279000000	     95.17554384667428700000	      0.00000000000000165627	     -0.00000000000000328538	    -50.36418595130106700000	    -18.86750420486228200000	    -15.69520937964527500000	    135.91245153880428000000	     91.38963903669794300000	     -0.00000000000000253437	      0.00000000000002409450
      0.99649999999999994000	     -4.89299369146689320000	     -1.09988810926981410000	     -1.70955872958592450000	      1.17893142095324290000	      1.01118198754424520000	     -0.32669091543152645000	    -21.21756204464116600000	      7.72422575361664250000	     11.10991750516849700000	    -49.66632344989522400000	    -20.40638446585639400000	      0.00000000000003137947	     -0.00000000000002357020	     22.96249422200640900000	      1.60274641965568910000	      5.59487628201585800000	      4.99305864995790220000	     -6.04811583931962900000	     -0.00000000000001032844	     -0.00000000000002655824	    -11.84421143515582600000	     -0.25200956922541490000	     15.73762892545267900000	    -20.18065993510553100000	    -26.32588373169956600000	      6.01658183876840270000	    141.10461591758059000000	     95.21997176170036400000	      0.00000000000000167840	     -0.00000000000000326573	    -50.10524360044502900000	    -18.93606367425239500000	    -15.64945917148171600000	    135.84784047999946000000	     91.42254443259645300000	     -0.00000000000000254167	      0.00000000000002420564
      0.99749999999999994000	     -4.85375231315835180000	     -1.10898400058457320000	     -1.68571275741302680000	      1.17903678292775990000	      1.01087355015818870000	     -0.32663078152095038000	    -21.05617859295398000000	      7.74885795512386370000	     10.90260688361632700000	    -50.36446850491168400000	    -20.30950808459925100000	      0.00000000000003154823	     -0.00000000000002363536	     22.86804548145579800000	      1.60811266805623570000	      5.59088391120991710000	      5.00840896443678400000	     -6.02500144986530990000	     -0.00000000000001035942	     -0.00000000000002671279	    -11.89443691852458300000	     -0.25144665202063576000	     15.63323518559843200000	    -20.29530421218284500000	    -26.27252875727257500000	      5.98142616276502090000	    140.85983646190698000000	     95.26090500873479500000	      0.00000000000000170070	     -0.00000000000000324624	    -49.84459794050417300000	    -19.00513051424957200000	    -15.60281019404008000000	    135.78071204055445000000	     91.45544230396981800000	     -0.00000000000000254896	      0.00000000000002431614
      0.99849999999999994000	     -4.81461785530146450000	     -1.11564929671306710000	     -1.66291116553340300000	      1.17913897001798330000	      1.01055706412426780000	     -0.32657211572679212000	    -20.89113662507057600000	      7.76823284472157920000	     10.69262774369563800000	    -51.06621212556235200000	    -20.20927914078668400000	      0.00000000000003171781	     -0.00000000000002369960	     22.77584008019892200000	      1.61620042164946920000	      5.58975684909985570000	      5.01048267555999520000	     -5.99931554415560790000	     -0.00000000000001038802	     -0.00000000000002686784	    -11.94451749887331900000	     -0.25326930646102030000	     15.52841626232331000000	    -20.40839886283231400000	    -26.21760695192107000000	      5.94690134864246730000	    140.61171579278113000000	     95.29837124380470900000	      0.00000000000000172381	     -0.00000000000000322695	    -49.58227577592581500000	    -19.07474511954478300000	    -15.55523159461393100000	    135.71108603698568000000	     91.48825528584019700000	     -0.00000000000000255628	      0.00000000000002442624
      0.99949999999999994000	     -4.77558216509692720000	     -1.11992625409328170000	     -1.64124220135363390000	      1.17923815485103290000	      1.01023251935303860000	     -0.32651476919039063000	    -20.72258301895946500000	      7.78238181245091540000	     10.48042827901812000000	    -51.77132193169089900000	    -20.10557195444295800000	      0.00000000000003188819	     -0.00000000000002376361	     22.68570956671458900000	      1.62691108370251850000	      5.59151829044649420000	      4.99969795936580840000	     -5.97149331440209250000	     -0.00000000000001041447	     -0.00000000000002702272	    -11.99444260829273800000	     -0.25744562355558709000	     15.42330074625995500000	    -20.51999979922403800000	    -26.16114408829832900000	      5.91296779161762310000	    140.36031529886759000000	     95.33240588309904200000	      0.00000000000000174772	     -0.00000000000000320855	    -49.31830079250157400000	    -19.14494916585564300000	    -15.50669110271621100000	    135.63898085621102000000	     91.52090535024201800000	     -0.00000000000000256342	      0.00000000000002453528
      1.00049999999999990000	     -4.73663851048406310000	     -1.12185538706831430000	     -1.62078941391213300000	      1.17933451132293030000	      1.00989990117477490000	     -0.32645860144527272000	    -20.55066274099940300000	      7.79133835218710400000	     10.26644100606854200000	    -52.47956538955298100000	    -19.99827644025607800000	      0.00000000000003206070	     -0.00000000000002382822	     22.59748718031648800000	      1.64015198726827680000	      5.59617253065980340000	      4.97647935431683040000	     -5.94198590525802310000	     -0.00000000000001044095	     -0.00000000000002717993	    -12.04420020308511000000	     -0.26394502345258830000	     15.31801267341177900000	    -20.63016681589876800000	    -26.10316271291558400000	      5.87958039608734670000	    140.10569605975220000000	     95.36305153273556800000	      0.00000000000000177137	     -0.00000000000000319053	    -49.05269370012207700000	    -19.21578527292491500000	    -15.45715524205321300000	    135.56441340527158000000	     91.55331381158298100000	     -0.00000000000000257009	      0.00000000000002464372
